<?xml version="1.0" standalone="no"?>
<!DOCTYPE svg PUBLIC "-//W3C//DTD SVG 20010904//EN"
 "http://www.w3.org/TR/2001/REC-SVG-20010904/DTD/svg10.dtd">
<svg version="1.0" xmlns="http://www.w3.org/2000/svg"
 width="1024.000000pt" height="1024.000000pt" viewBox="0 0 1024.000000 1024.000000"
 preserveAspectRatio="xMidYMid meet">

<g transform="translate(0.000000,1024.000000) scale(0.100000,-0.100000)"
fill="#000000" stroke="none">
<path d="M4350 8274 c-349 -28 -589 -110 -861 -293 -261 -175 -458 -404 -599
-696 -212 -440 -247 -972 -93 -1432 152 -456 454 -815 885 -1051 129 -71 299
-131 491 -174 132 -30 419 -32 564 -5 103 19 279 71 300 88 10 9 13 80 13 354
0 297 -2 344 -15 355 -13 11 -33 5 -123 -38 -59 -28 -129 -57 -157 -66 -182
-56 -410 -46 -628 28 -148 51 -243 113 -372 241 -204 204 -281 350 -341 650
-37 186 -15 460 53 648 95 263 300 505 523 617 281 141 606 145 912 9 116 -51
148 -58 148 -33 0 11 0 168 0 349 0 317 -1 331 -20 347 -22 18 -236 72 -345
87 -85 12 -273 20 -335 15z"/>
<path d="M5252 8258 c-7 -7 -11 -28 -11 -47 1 -20 3 -27 6 -16 2 11 6 30 9 42
l4 23 288 3 287 2 -285 3 c-212 1 -289 -1 -298 -10z"/>
<path d="M5868 8253 c12 -2 32 -2 45 0 12 2 2 4 -23 4 -25 0 -35 -2 -22 -4z"/>
<path d="M5958 8243 c12 -2 30 -2 40 0 9 3 -1 5 -23 4 -22 0 -30 -2 -17 -4z"/>
<path d="M6028 8233 c6 -2 18 -2 25 0 6 3 1 5 -13 5 -14 0 -19 -2 -12 -5z"/>
<path d="M6088 8223 c6 -2 18 -2 25 0 6 3 1 5 -13 5 -14 0 -19 -2 -12 -5z"/>
<path d="M6145 8210 c27 -12 43 -12 25 0 -8 5 -22 9 -30 9 -10 0 -8 -3 5 -9z"/>
<path d="M6248 8183 c7 -3 16 -2 19 1 4 3 -2 6 -13 5 -11 0 -14 -3 -6 -6z"/>
<path d="M6390 8140 c8 -5 20 -10 25 -10 6 0 3 5 -5 10 -8 5 -19 10 -25 10 -5
0 -3 -5 5 -10z"/>
<path d="M6465 8110 c3 -5 11 -10 16 -10 6 0 7 5 4 10 -3 6 -11 10 -16 10 -6
0 -7 -4 -4 -10z"/>
<path d="M6601 8046 c2 -2 15 -9 29 -15 24 -11 24 -11 6 3 -16 13 -49 24 -35
12z"/>
<path d="M6660 8016 c0 -3 9 -10 20 -16 11 -6 20 -8 20 -6 0 3 -9 10 -20 16
-11 6 -20 8 -20 6z"/>
<path d="M6740 7966 c0 -3 9 -10 20 -16 11 -6 20 -8 20 -6 0 3 -9 10 -20 16
-11 6 -20 8 -20 6z"/>
<path d="M5243 7840 c0 -47 2 -66 4 -42 2 23 2 61 0 85 -2 23 -4 4 -4 -43z"/>
<path d="M6830 7906 c0 -2 8 -10 18 -17 15 -13 16 -12 3 4 -13 16 -21 21 -21
13z"/>
<path d="M6902 7844 c10 -10 20 -16 22 -13 3 3 -5 11 -17 18 -21 13 -21 12 -5
-5z"/>
<path d="M6954 7798 c41 -42 62 -53 27 -15 -19 20 -38 37 -43 37 -4 0 3 -10
16 -22z"/>
<path d="M7035 7720 c10 -11 20 -20 23 -20 3 0 -3 9 -13 20 -10 11 -20 20 -23
20 -3 0 3 -9 13 -20z"/>
<path d="M7065 7680 c3 -5 11 -10 16 -10 6 0 7 5 4 10 -3 6 -11 10 -16 10 -6
0 -7 -4 -4 -10z"/>
<path d="M5793 7643 c15 -2 39 -2 55 0 15 2 2 4 -28 4 -30 0 -43 -2 -27 -4z"/>
<path d="M5913 7633 c9 -2 23 -2 30 0 6 3 -1 5 -18 5 -16 0 -22 -2 -12 -5z"/>
<path d="M7120 7621 c5 -11 15 -23 21 -27 6 -3 3 5 -6 20 -20 30 -30 35 -15 7z"/>
<path d="M5968 7623 c6 -2 18 -2 25 0 6 3 1 5 -13 5 -14 0 -19 -2 -12 -5z"/>
<path d="M6065 7600 c11 -5 27 -9 35 -9 9 0 8 4 -5 9 -11 5 -27 9 -35 9 -9 0
-8 -4 5 -9z"/>
<path d="M5754 7330 c0 -146 2 -205 3 -132 2 72 2 192 0 265 -1 72 -3 13 -3
-133z"/>
<path d="M7181 7538 c18 -27 34 -48 36 -48 7 0 -16 35 -42 65 -20 23 -19 18 6
-17z"/>
<path d="M6261 7526 c10 -9 69 -36 69 -32 0 6 -55 36 -66 36 -4 0 -5 -2 -3 -4z"/>
<path d="M7227 7468 c4 -7 22 -37 40 -67 18 -30 33 -50 33 -45 0 11 -69 124
-76 124 -3 0 -2 -6 3 -12z"/>
<path d="M6410 7431 c19 -17 44 -36 55 -42 24 -12 -14 21 -60 52 -25 18 -25
16 5 -10z"/>
<path d="M6544 7307 c27 -31 51 -57 53 -57 7 0 -76 98 -90 107 -7 4 10 -19 37
-50z"/>
<path d="M7350 7255 c0 -5 5 -17 10 -25 5 -8 10 -10 10 -5 0 6 -5 17 -10 25
-5 8 -10 11 -10 5z"/>
<path d="M6620 7210 c11 -16 26 -33 32 -36 7 -4 -1 9 -16 29 -34 44 -46 50
-16 7z"/>
<path d="M7391 7155 c0 -5 6 -21 14 -35 8 -14 14 -20 14 -15 0 6 -6 21 -14 35
-8 14 -14 21 -14 15z"/>
<path d="M6696 7105 c24 -39 24 -40 24 -28 0 6 -9 21 -21 34 l-20 24 17 -30z"/>
<path d="M6183 7082 c-8 -5 3 -8 25 -8 20 0 46 -3 57 -8 12 -4 10 -1 -5 8 -27
17 -58 20 -77 8z"/>
<path d="M6136 7045 c-11 -8 -15 -15 -9 -15 6 0 16 7 23 15 16 19 11 19 -14 0z"/>
<path d="M7431 7044 c0 -11 3 -14 6 -6 3 7 2 16 -1 19 -3 4 -6 -2 -5 -13z"/>
<path d="M5650 6983 l-55 -58 58 55 c31 30 57 56 57 57 0 8 -10 -1 -60 -54z"/>
<path d="M6330 7015 c13 -14 26 -25 28 -25 3 0 -5 11 -18 25 -13 14 -26 25
-28 25 -3 0 5 -11 18 -25z"/>
<path d="M6751 7000 c14 -31 19 -36 19 -24 0 6 -7 19 -16 30 -14 18 -14 18 -3
-6z"/>
<path d="M7441 7010 c0 -8 4 -24 9 -35 5 -13 9 -14 9 -5 0 8 -4 24 -9 35 -5
13 -9 14 -9 5z"/>
<path d="M6065 6972 c-5 -4 -30 -30 -55 -57 l-45 -50 58 55 c31 30 57 56 57
57 0 5 -4 3 -15 -5z"/>
<path d="M7461 6934 c0 -11 3 -14 6 -6 3 7 2 16 -1 19 -3 4 -6 -2 -5 -13z"/>
<path d="M6405 6925 c4 -11 11 -36 15 -55 l8 -35 1 35 c0 19 -7 44 -16 55
l-16 20 8 -20z"/>
<path d="M7472 6900 c0 -8 4 -26 8 -40 6 -20 8 -21 8 -5 0 11 -3 29 -8 40 -5
12 -8 14 -8 5z"/>
<path d="M5234 6795 c0 -49 1 -71 3 -48 2 23 2 64 0 90 -2 26 -3 8 -3 -42z"/>
<path d="M5524 6858 l-19 -23 23 19 c12 11 22 21 22 23 0 8 -8 2 -26 -19z"/>
<path d="M6801 6870 c0 -8 4 -24 9 -35 5 -13 9 -14 9 -5 0 8 -4 24 -9 35 -5
13 -9 14 -9 5z"/>
<path d="M5940 6850 c-9 -6 -10 -10 -3 -10 6 0 15 5 18 10 8 12 4 12 -15 0z"/>
<path d="M5909 6813 c-13 -16 -12 -17 4 -4 9 7 17 15 17 17 0 8 -8 3 -21 -13z"/>
<path d="M6411 6820 c-1 -8 -16 -30 -33 -50 l-33 -35 39 36 c22 21 36 43 33
50 -4 11 -6 11 -6 -1z"/>
<path d="M7492 6805 c0 -16 4 -43 8 -60 11 -42 11 -1 1 50 -7 34 -9 35 -9 10z"/>
<path d="M5449 6783 l-24 -28 28 24 c25 23 32 31 24 31 -2 0 -14 -12 -28 -27z"/>
<path d="M6821 6794 c0 -11 3 -14 6 -6 3 7 2 16 -1 19 -3 4 -6 -2 -5 -13z"/>
<path d="M6831 6754 c0 -11 3 -14 6 -6 3 7 2 16 -1 19 -3 4 -6 -2 -5 -13z"/>
<path d="M5823 6734 c-12 -13 -18 -24 -14 -24 10 0 45 39 40 44 -2 3 -14 -6
-26 -20z"/>
<path d="M4588 6733 c7 -3 16 -2 19 1 4 3 -2 6 -13 5 -11 0 -14 -3 -6 -6z"/>
<path d="M6319 6713 c-13 -16 -12 -17 4 -4 16 13 21 21 13 21 -2 0 -10 -8 -17
-17z"/>
<path d="M4479 6663 l-34 -38 38 34 c20 19 37 36 37 38 0 8 -8 0 -41 -34z"/>
<path d="M4670 6696 c0 -2 8 -10 18 -17 15 -13 16 -12 3 4 -13 16 -21 21 -21
13z"/>
<path d="M6259 6653 l-34 -38 38 34 c34 33 42 41 34 41 -2 0 -19 -17 -38 -37z"/>
<path d="M7513 6655 c0 -22 2 -30 4 -17 2 12 2 30 0 40 -3 9 -5 -1 -4 -23z"/>
<path d="M5241 6670 c-1 -29 12 -60 26 -60 7 0 24 10 36 22 l22 22 -27 -17
c-36 -22 -36 -22 -47 16 -5 17 -10 25 -10 17z"/>
<path d="M6853 6645 c0 -22 2 -30 4 -17 2 12 2 30 0 40 -3 9 -5 -1 -4 -23z"/>
<path d="M5742 6654 c-7 -8 -8 -14 -3 -14 10 0 25 19 20 25 -2 1 -10 -3 -17
-11z"/>
<path d="M4710 6656 c0 -2 8 -10 18 -17 15 -13 16 -12 3 4 -13 16 -21 21 -21
13z"/>
<path d="M4400 6585 c-18 -19 -32 -36 -29 -38 2 -2 19 14 38 35 42 48 36 50
-9 3z"/>
<path d="M4750 6616 c0 -2 8 -10 18 -17 15 -13 16 -12 3 4 -13 16 -21 21 -21
13z"/>
<path d="M6199 6593 c-13 -16 -12 -17 4 -4 9 7 17 15 17 17 0 8 -8 3 -21 -13z"/>
<path d="M5659 6573 l-24 -28 28 24 c15 14 27 26 27 28 0 8 -8 1 -31 -24z"/>
<path d="M4820 6545 c19 -19 36 -35 39 -35 3 0 -10 16 -29 35 -19 19 -36 35
-39 35 -3 0 10 -16 29 -35z"/>
<path d="M6864 6460 c0 -69 1 -97 3 -62 2 34 2 90 0 125 -2 34 -3 6 -3 -63z"/>
<path d="M7524 6470 c0 -63 1 -89 3 -57 2 31 2 83 0 115 -2 31 -3 5 -3 -58z"/>
<path d="M6120 6513 l-55 -58 58 55 c31 30 57 56 57 57 0 8 -10 -1 -60 -54z"/>
<path d="M4354 6516 c-3 -8 -4 -25 -2 -38 3 -17 5 -13 9 15 5 38 2 47 -7 23z"/>
<path d="M4366 6437 c3 -10 9 -15 12 -12 3 3 0 11 -7 18 -10 9 -11 8 -5 -6z"/>
<path d="M6039 6433 c-13 -16 -12 -17 4 -4 9 7 17 15 17 17 0 8 -8 3 -21 -13z"/>
<path d="M5499 6413 l-24 -28 28 24 c15 14 27 26 27 28 0 8 -8 1 -31 -24z"/>
<path d="M5999 6393 c-13 -16 -12 -17 4 -4 9 7 17 15 17 17 0 8 -8 3 -21 -13z"/>
<path d="M4435 6360 c10 -11 20 -20 23 -20 3 0 -3 9 -13 20 -10 11 -20 20 -23
20 -3 0 3 -9 13 -20z"/>
<path d="M5959 6353 c-13 -16 -12 -17 4 -4 16 13 21 21 13 21 -2 0 -10 -8 -17
-17z"/>
<path d="M5419 6333 l-24 -28 28 24 c25 23 32 31 24 31 -2 0 -14 -12 -28 -27z"/>
<path d="M4555 6240 c49 -49 92 -90 95 -90 2 0 -36 41 -85 90 -49 50 -92 90
-95 90 -2 0 36 -40 85 -90z"/>
<path d="M5880 6273 l-55 -58 58 55 c31 30 57 56 57 57 0 8 -10 -1 -60 -54z"/>
<path d="M5050 6313 c0 -6 8 -17 18 -24 16 -13 16 -13 2 6 -8 11 -16 22 -17
24 -2 2 -3 0 -3 -6z"/>
<path d="M6852 6294 c-1 -17 -4 -47 -7 -65 l-5 -34 11 34 c5 18 8 47 6 65 l-4
31 -1 -31z"/>
<path d="M7513 6280 c0 -25 2 -35 4 -22 2 12 2 32 0 45 -2 12 -4 2 -4 -23z"/>
<path d="M5339 6253 l-24 -28 28 24 c15 14 27 26 27 28 0 8 -8 1 -31 -24z"/>
<path d="M5279 6193 l-24 -28 28 24 c15 14 27 26 27 28 0 8 -8 1 -31 -24z"/>
<path d="M5779 6173 l-34 -38 38 34 c34 33 42 41 34 41 -2 0 -19 -17 -38 -37z"/>
<path d="M7502 6180 c0 -14 2 -19 5 -12 2 6 2 18 0 25 -3 6 -5 1 -5 -13z"/>
<path d="M5197 6169 c7 -7 15 -10 18 -7 3 3 -2 9 -12 12 -14 6 -15 5 -6 -5z"/>
<path d="M6832 6155 c0 -16 2 -22 5 -12 2 9 2 23 0 30 -3 6 -5 -1 -5 -18z"/>
<path d="M4690 6105 c19 -19 36 -35 39 -35 3 0 -10 16 -29 35 -19 19 -36 35
-39 35 -3 0 10 -16 29 -35z"/>
<path d="M5699 6093 l-34 -38 38 34 c34 33 42 41 34 41 -2 0 -19 -17 -38 -37z"/>
<path d="M7462 5993 c-12 -48 -24 -99 -27 -113 l-6 -25 11 25 c15 33 52 191
47 196 -2 3 -14 -35 -25 -83z"/>
<path d="M4755 6040 c10 -11 20 -20 23 -20 3 0 -3 9 -13 20 -10 11 -20 20 -23
20 -3 0 3 -9 13 -20z"/>
<path d="M6781 5989 c-11 -34 -19 -64 -17 -66 2 -2 13 24 25 58 11 34 19 64
17 66 -2 2 -13 -24 -25 -58z"/>
<path d="M5614 6008 l-29 -33 33 29 c30 28 37 36 29 36 -2 0 -16 -15 -33 -32z"/>
<path d="M4835 5960 c10 -11 20 -20 23 -20 3 0 -3 9 -13 20 -10 11 -20 20 -23
20 -3 0 3 -9 13 -20z"/>
<path d="M5539 5933 l-34 -38 38 34 c20 19 37 36 37 38 0 8 -8 0 -41 -34z"/>
<path d="M5420 5815 c-41 -41 -72 -75 -69 -75 2 0 38 34 79 75 41 41 72 75 69
75 -2 0 -38 -34 -79 -75z"/>
<path d="M4940 5855 c13 -14 26 -25 28 -25 3 0 -5 11 -18 25 -13 14 -26 25
-28 25 -3 0 5 -11 18 -25z"/>
<path d="M5737 5853 c10 -7 13 -82 16 -293 l2 -285 0 289 c0 249 -2 290 -15
293 -11 3 -12 2 -3 -4z"/>
<path d="M5665 5798 l-50 -53 53 50 c48 46 57 55 49 55 -1 0 -25 -24 -52 -52z"/>
<path d="M6701 5803 c-10 -26 -10 -27 4 -9 8 11 15 23 15 28 0 15 -7 8 -19
-19z"/>
<path d="M5000 5796 c0 -2 8 -10 18 -17 15 -13 16 -12 3 4 -13 16 -21 21 -21
13z"/>
<path d="M7379 5744 c-5 -15 -8 -29 -5 -31 2 -2 8 10 14 26 13 38 5 41 -9 5z"/>
<path d="M5115 5680 c33 -33 62 -60 64 -60 3 0 -21 27 -54 60 -33 33 -62 60
-64 60 -3 0 21 -27 54 -60z"/>
<path d="M5299 5693 l-34 -38 38 34 c20 19 37 36 37 38 0 8 -8 0 -41 -34z"/>
<path d="M5560 5696 c-53 -50 -115 -116 -109 -116 2 0 38 34 79 75 75 75 95
103 30 41z"/>
<path d="M6620 5680 c-12 -16 -19 -30 -16 -30 2 0 14 14 26 30 12 17 19 30 16
30 -2 0 -14 -13 -26 -30z"/>
<path d="M7351 5673 c-10 -26 -10 -27 4 -9 8 11 15 23 15 28 0 15 -7 8 -19
-19z"/>
<path d="M5220 5630 c-19 -11 -28 -19 -20 -19 8 0 26 8 40 19 31 25 25 25 -20
0z"/>
<path d="M6550 5595 c-24 -25 -42 -45 -39 -45 3 0 25 20 49 45 24 25 42 45 39
45 -3 0 -25 -20 -49 -45z"/>
<path d="M7316 5603 c-6 -14 -5 -15 5 -6 7 7 10 15 7 18 -3 3 -9 -2 -12 -12z"/>
<path d="M5365 5498 l-70 -73 73 70 c39 38 72 71 72 72 0 8 -11 -2 -75 -69z"/>
<path d="M7276 5523 c-6 -14 -5 -15 5 -6 7 7 10 15 7 18 -3 3 -9 -2 -12 -12z"/>
<path d="M6459 5503 l-24 -28 28 24 c15 14 27 26 27 28 0 8 -8 1 -31 -24z"/>
<path d="M7246 5485 c-9 -26 -7 -32 5 -12 6 10 9 21 6 23 -2 3 -7 -2 -11 -11z"/>
<path d="M6400 5459 c-22 -18 -22 -19 -3 -10 12 6 25 16 28 21 9 15 3 12 -25
-11z"/>
<path d="M7216 5433 c-6 -14 -5 -15 5 -6 7 7 10 15 7 18 -3 3 -9 -2 -12 -12z"/>
<path d="M6316 5405 c-11 -8 -15 -15 -9 -15 6 0 16 7 23 15 16 19 11 19 -14 0z"/>
<path d="M6270 5380 c-9 -6 -10 -10 -3 -10 6 0 15 5 18 10 8 12 4 12 -15 0z"/>
<path d="M5244 5040 c0 -190 2 -267 3 -172 2 94 2 250 0 345 -1 94 -3 17 -3
-173z"/>
<path d="M6220 5360 c-8 -5 -10 -10 -5 -10 6 0 17 5 25 10 8 5 11 10 5 10 -5
0 -17 -5 -25 -10z"/>
<path d="M6135 5325 c-25 -12 -26 -14 -5 -9 28 7 60 23 45 23 -5 0 -23 -6 -40
-14z"/>
<path d="M7129 5313 c-13 -16 -12 -17 4 -4 16 13 21 21 13 21 -2 0 -10 -8 -17
-17z"/>
<path d="M6068 5303 c6 -2 18 -2 25 0 6 3 1 5 -13 5 -14 0 -19 -2 -12 -5z"/>
<path d="M5980 5290 c-20 -6 -21 -8 -5 -8 11 0 34 4 50 8 27 7 27 8 5 8 -14 0
-36 -4 -50 -8z"/>
<path d="M5893 5273 c9 -2 25 -2 35 0 9 3 1 5 -18 5 -19 0 -27 -2 -17 -5z"/>
<path d="M5778 5263 c12 -2 32 -2 45 0 12 2 2 4 -23 4 -25 0 -35 -2 -22 -4z"/>
<path d="M7069 5243 c-29 -35 -41 -53 -36 -53 2 0 17 16 31 35 28 36 31 49 5
18z"/>
<path d="M6986 5153 c-6 -14 -5 -15 5 -6 7 7 10 15 7 18 -3 3 -9 -2 -12 -12z"/>
<path d="M6949 5113 c-13 -16 -12 -17 4 -4 9 7 17 15 17 17 0 8 -8 3 -21 -13z"/>
<path d="M6824 5008 l-19 -23 23 19 c12 11 22 21 22 23 0 8 -8 2 -26 -19z"/>
<path d="M6640 4880 c-9 -6 -10 -10 -3 -10 6 0 15 5 18 10 8 12 4 12 -15 0z"/>
<path d="M6470 4790 c-8 -5 -10 -10 -5 -10 6 0 17 5 25 10 8 5 11 10 5 10 -5
0 -17 -5 -25 -10z"/>
<path d="M6405 4760 c-3 -6 1 -7 9 -4 18 7 21 14 7 14 -6 0 -13 -4 -16 -10z"/>
<path d="M6305 4723 c-21 -7 -42 -16 -45 -19 -9 -9 54 8 80 22 32 17 16 16
-35 -3z"/>
<path d="M5240 4666 c0 -14 4 -27 8 -30 5 -3 6 8 4 25 -5 35 -12 38 -12 5z"/>
<path d="M5995 4640 c-27 -7 -27 -8 -5 -8 14 0 36 4 50 8 20 6 21 8 5 8 -11 0
-33 -4 -50 -8z"/>
<path d="M5903 4623 c9 -2 25 -2 35 0 9 3 1 5 -18 5 -19 0 -27 -2 -17 -5z"/>
<path d="M5279 4607 c4 -4 104 -6 222 -5 l214 3 -222 5 c-122 3 -219 2 -214
-3z"/>
<path d="M5788 4613 c18 -2 45 -2 60 0 15 2 0 4 -33 4 -33 0 -45 -2 -27 -4z"/>
<path d="M1175 3498 c-68 -12 -200 -78 -257 -128 -52 -45 -126 -151 -152 -219
-28 -73 -46 -178 -46 -272 0 -285 145 -504 390 -588 89 -31 232 -39 323 -17
186 44 339 186 391 364 l15 52 -127 0 -127 0 -19 -47 c-70 -170 -296 -225
-448 -110 -96 74 -138 178 -138 347 0 126 21 210 73 287 82 122 243 163 382
97 47 -22 107 -90 131 -147 l19 -47 123 0 122 0 -6 28 c-71 293 -339 459 -649
400z"/>
<path d="M6010 2884 c0 -549 2 -606 16 -600 9 3 60 6 115 6 l99 0 0 600 0 600
-115 0 -115 0 0 -606z"/>
<path d="M6410 2888 l0 -603 297 6 c185 4 315 10 343 18 143 39 270 142 334
272 116 236 77 554 -90 729 -72 75 -128 111 -229 146 -79 28 -84 28 -367 32
l-288 4 0 -604z m469 392 c172 -22 277 -124 312 -299 15 -80 6 -201 -21 -274
-28 -74 -93 -146 -167 -182 -54 -27 -68 -29 -205 -33 l-148 -4 0 401 0 401 78
0 c42 0 110 -5 151 -10z"/>
<path d="M3950 3274 l0 -116 -70 4 -70 3 0 -87 0 -88 70 0 70 0 0 -244 c0
-151 4 -264 12 -295 14 -61 55 -114 110 -142 47 -24 157 -35 242 -25 l56 7 0
93 0 92 -63 -4 c-56 -4 -67 -1 -93 21 l-29 25 -3 236 -3 236 90 0 91 0 0 85 0
85 -90 0 -90 0 0 115 0 115 -115 0 -115 0 0 -116z"/>
<path d="M2228 3161 c-148 -48 -255 -160 -288 -303 -17 -75 -12 -219 10 -290
63 -204 270 -329 492 -298 204 29 352 179 378 384 32 250 -96 451 -325 512
-71 19 -198 17 -267 -5z m240 -190 c47 -24 66 -45 94 -106 32 -70 32 -218 2
-286 -39 -84 -99 -121 -195 -121 -134 0 -209 94 -209 262 0 122 49 223 125
256 45 20 139 17 183 -5z"/>
<path d="M3307 3164 c-33 -10 -66 -32 -103 -68 l-54 -52 0 58 0 58 -110 0
-110 0 0 -435 0 -435 115 0 115 0 0 245 c0 141 5 266 11 296 15 71 64 124 127
138 82 17 146 -6 184 -66 22 -37 23 -44 26 -328 l4 -290 115 3 115 3 -4 327
c-5 370 -8 385 -81 468 -58 66 -125 94 -225 93 -42 0 -99 -7 -125 -15z"/>
<path d="M4844 3164 c-50 -18 -99 -67 -118 -119 l-15 -40 0 78 -1 77 -115 0
-115 0 0 -434 0 -435 114 -3 114 -3 4 260 c3 222 6 266 21 300 36 81 87 113
200 122 l67 6 0 103 0 104 -57 -1 c-32 0 -76 -7 -99 -15z"/>
<path d="M5348 3169 c-105 -25 -228 -122 -278 -218 -26 -52 -50 -158 -50 -226
0 -67 23 -171 51 -230 33 -71 116 -150 194 -186 184 -83 398 -47 529 91 66 69
103 147 114 242 17 141 -3 247 -66 343 -59 91 -158 160 -262 184 -54 13 -180
12 -232 0z m239 -215 c56 -44 86 -111 91 -205 11 -187 -66 -292 -213 -292 -70
0 -109 17 -152 67 -43 48 -57 97 -57 196 0 94 14 148 52 198 41 54 86 73 169
69 62 -2 76 -6 110 -33z"/>
<path d="M7847 3160 c-118 -37 -210 -119 -264 -236 -26 -56 -28 -67 -28 -199
0 -137 1 -142 32 -208 179 -378 767 -314 843 92 49 265 -80 495 -315 557 -72
20 -198 17 -268 -6z m238 -189 c49 -23 68 -43 97 -106 32 -72 32 -220 -1 -288
-45 -94 -138 -138 -242 -116 -111 24 -166 126 -157 290 6 104 31 156 96 206
39 29 51 33 105 33 39 0 77 -7 102 -19z"/>
<path d="M8818 3161 c-83 -27 -139 -63 -196 -126 -104 -114 -137 -309 -82
-486 33 -108 111 -193 226 -246 55 -26 68 -28 189 -28 125 0 133 1 195 31 36
17 85 49 110 72 46 40 95 125 106 182 l7 30 -117 0 -116 0 -11 -27 c-25 -66
-86 -104 -163 -104 -132 0 -207 82 -214 235 -6 112 10 174 59 230 47 53 90 70
169 64 67 -5 119 -37 140 -87 l12 -31 119 0 119 0 -6 28 c-23 104 -119 213
-222 253 -81 32 -244 37 -324 10z"/>
</g>
</svg>
